<svg width="27" height="27" viewBox="0 0 27 27" fill="none" xmlns="http://www.w3.org/2000/svg">
<g opacity="0.9">
<path d="M9.03448 15.603C9.03448 16.727 9.96079 17.6382 11.1034 17.6382H24.8966C26.0392 17.6382 26.9655 16.727 26.9655 15.603V11.397C26.9655 10.273 26.0392 9.3618 24.8966 9.3618H18H11.1034C9.96079 9.3618 9.03448 10.273 9.03448 11.397V15.603Z" fill="#007A87" fill-opacity="0.9"/>
<path d="M24.931 27C26.0737 27 27 26.0888 27 24.9648V11.397C27 10.273 26.0737 9.36181 24.931 9.36181H20.6552C19.5125 9.36181 18.5862 10.273 18.5862 11.397V24.9648C18.5862 26.0888 19.5125 27 20.6552 27H24.931Z" fill="#007A87" fill-opacity="0.9"/>
<path d="M0 11.397C0 10.273 0.926307 9.3618 2.06897 9.3618H15.8621C17.0047 9.3618 17.931 10.273 17.931 11.397V15.603C17.931 16.727 17.0047 17.6382 15.8621 17.6382H2.06897C0.926308 17.6382 0 16.727 0 15.603V11.397Z" fill="#007A87" fill-opacity="0.7"/>
<path d="M15.8966 0C17.0392 4.91315e-08 17.9655 0.911179 17.9655 2.03518V15.603C17.9655 16.727 17.0392 17.6382 15.8966 17.6382H11.6207C10.478 17.6382 9.55172 16.727 9.55172 15.603L9.55173 2.03518C9.55173 0.911179 10.478 -4.91315e-08 11.6207 0H15.8966Z" fill="#007A87" fill-opacity="0.7"/>
<path d="M9.03448 20.7588C9.03448 19.6348 9.96079 18.7236 11.1034 18.7236H15.3793C16.522 18.7236 17.4483 19.6348 17.4483 20.7588V24.9648C17.4483 26.0888 16.522 27 15.3793 27H11.1034C9.96079 27 9.03448 26.0888 9.03448 24.9648V20.7588Z" fill="#007A87" fill-opacity="0.9"/>
</g>
</svg>
